<svg width="30" height="10" viewBox="0 0 30 10" fill="none" xmlns="http://www.w3.org/2000/svg">
<path d="M4.5527 7.23451C4.5527 6.86441 4.55672 5.87515 4.54759 5.75326C4.55555 4.28121 3.48525 3.24281 2.80908 3.32376C2.3412 3.36436 1.94907 3.55515 1.73853 4.10399C1.54339 4.61548 1.71785 5.29584 2.36665 5.45548C3.06039 5.62693 3.46549 5.76958 3.75866 5.97083C4.11788 6.21721 4.41114 6.68793 4.41892 7.2351" fill="#0060AF"/>
<path d="M4.82928 9.47254C3.60604 9.47254 2.34889 9.17125 1.09341 8.57537L1.0626 8.56022L1.04787 8.52882C0.484466 7.33956 0.186523 6.0388 0.186523 4.76616C0.186523 3.49545 0.472243 2.25035 1.03606 1.06269L1.05155 1.03113L1.08295 1.01539C2.24433 0.465211 3.49369 0.186523 4.79747 0.186523C6.01201 0.186523 7.30909 0.496771 8.54791 1.08529L8.57972 1.09944L8.59437 1.13158C9.16857 2.34277 9.47137 3.6432 9.47137 4.89475C9.47137 6.14143 9.18063 7.38762 8.60575 8.59805L8.5906 8.62986L8.55862 8.6446C7.41499 9.18598 6.12528 9.47254 4.82928 9.47254ZM1.20961 8.41229C2.42925 8.98599 3.64563 9.27573 4.82928 9.27573C6.08434 9.27573 7.33253 9.00139 8.4436 8.48136C8.99553 7.30842 9.27531 6.10125 9.27531 4.89475C9.27531 3.68339 8.98331 2.42331 8.43096 1.24778C7.22872 0.682619 5.97316 0.382919 4.79747 0.382919C3.53521 0.382919 2.32536 0.65064 1.19906 1.1788C0.658426 2.32996 0.383254 3.53622 0.383254 4.76616C0.383254 5.99844 0.669225 7.25903 1.20961 8.41229Z" fill="#0060AF"/>
<path d="M4.26285 7.23613C4.26511 6.76172 4.00031 6.34223 3.65424 6.11678C3.34725 5.91754 2.93512 5.78661 2.27026 5.61801C2.06474 5.56543 1.84976 5.44865 1.7832 5.2998C1.60715 5.47719 1.57517 5.87601 1.60615 6.10908C1.64214 6.37881 1.95733 6.82333 2.43191 6.84075C2.72173 6.85238 3.08815 6.77838 3.26387 6.74105C3.56701 6.67558 4.04661 6.86544 4.12296 7.23555" fill="#0060AF"/>
<path d="M4.79706 1.03027C3.99239 1.03027 3.2973 1.56094 3.29981 2.47921C3.30232 3.2514 3.92332 3.66479 4.14492 3.96005C4.47978 4.405 4.66102 4.93165 4.67986 5.73749C4.69451 6.37883 4.69375 7.01214 4.69702 7.23658H4.87466C4.87157 7.00176 4.86353 6.32944 4.87273 5.71765C4.88479 4.91156 5.07256 4.405 5.40759 3.96005C5.63111 3.66479 6.2516 3.2514 6.25294 2.47921C6.25596 1.56094 5.56129 1.03027 4.75729 1.03027" fill="#0060AF"/>
<path d="M5.00098 7.23451C5.00098 6.86441 4.99679 5.87515 5.00575 5.75326C4.99788 4.28121 6.06751 3.24281 6.74426 3.32376C7.21215 3.36436 7.60385 3.55515 7.81498 4.10399C8.00995 4.61548 7.83448 5.29584 7.18645 5.45548C6.49236 5.62693 6.08777 5.76958 5.79384 5.97083C5.43504 6.21721 5.1623 6.68793 5.15393 7.2351" fill="#0060AF"/>
<path d="M5.29103 7.23613C5.28852 6.76172 5.55323 6.34223 5.8983 6.11678C6.20654 5.91754 6.61917 5.78661 7.28345 5.61801C7.48939 5.56543 7.70412 5.44865 7.7695 5.2998C7.94639 5.47719 7.97829 5.87601 7.94731 6.10908C7.91056 6.37881 7.59621 6.82333 7.12247 6.84075C6.83273 6.85238 6.46438 6.77838 6.28942 6.74105C5.98746 6.67558 5.50652 6.86544 5.42983 7.23555" fill="#0060AF"/>
<path d="M5.53949 8.76725L5.43652 8.01591L5.68507 7.97824C5.7456 7.96995 5.81927 7.98049 5.84874 8.01842C5.8813 8.05801 5.89126 8.09075 5.89754 8.14265C5.90692 8.20686 5.88833 8.28112 5.816 8.31812V8.32037C5.89679 8.32037 5.94559 8.37839 5.95974 8.47633C5.96183 8.49701 5.96795 8.54699 5.96183 8.58868C5.94543 8.68788 5.88624 8.71978 5.78637 8.73376L5.53949 8.76725ZM5.69947 8.63272C5.72894 8.62851 5.75883 8.62695 5.78218 8.61204C5.81793 8.58868 5.81466 8.53871 5.80973 8.50163C5.79725 8.42008 5.77599 8.38911 5.68951 8.40192L5.63518 8.41029L5.66959 8.63691L5.69947 8.63272ZM5.6474 8.28555C5.6803 8.28021 5.72492 8.27626 5.74351 8.24504C5.75322 8.22419 5.76569 8.20761 5.75749 8.16123C5.74736 8.10623 5.72911 8.07216 5.65929 8.08539L5.59424 8.09586L5.61986 8.2884" fill="#0060AF"/>
<path d="M6.61568 8.31568C6.61761 8.32966 6.61987 8.34523 6.62071 8.3592C6.6408 8.49625 6.61568 8.60969 6.46165 8.64091C6.23394 8.68478 6.19033 8.5433 6.15023 8.34523L6.12888 8.23807C6.09749 8.04854 6.08401 7.90505 6.30602 7.86085C6.43118 7.838 6.51389 7.88781 6.54829 8.01237C6.55365 8.03096 6.56035 8.04938 6.56286 8.06805L6.42666 8.09618C6.41092 8.04938 6.39007 7.96575 6.32879 7.97278C6.21879 7.986 6.25512 8.12288 6.26642 8.18006L6.30736 8.38575C6.31967 8.44795 6.34411 8.54731 6.4393 8.52814C6.51657 8.51266 6.48291 8.39228 6.47605 8.34297" fill="#0060AF"/>
<path d="M6.83522 8.54237L6.78809 7.76482L6.97109 7.70898L7.35475 8.38524L7.21068 8.42835L7.11977 8.25648L6.95979 8.30453L6.98046 8.49992L6.83522 8.54237ZM6.94639 8.17896L7.062 8.14548L6.90847 7.83087" fill="#0060AF"/>
<path d="M2.31524 7.95538C2.3725 7.77204 2.42381 7.63709 2.64231 7.69703C2.75926 7.72968 2.83176 7.78124 2.82833 7.91711C2.82776 7.94734 2.81778 7.97814 2.81125 8.00803L2.67521 7.97044C2.69304 7.89543 2.70434 7.83591 2.61192 7.80745C2.5051 7.77815 2.47907 7.90766 2.46433 7.96358L2.409 8.16742C2.39142 8.22795 2.37032 8.32799 2.46433 8.35377C2.54202 8.3747 2.58915 8.29844 2.61728 8.1871L2.5221 8.1619L2.555 8.04394L2.77877 8.11594L2.67253 8.50881L2.56956 8.48085L2.59275 8.39781H2.58982C2.54244 8.4657 2.48459 8.47282 2.43394 8.4631C2.21017 8.40258 2.23353 8.25633 2.28694 8.06094" fill="#0060AF"/>
<path d="M3.14779 8.28666L3.0804 8.60629L2.92871 8.57347L3.09036 7.82715L3.34896 7.88558C3.50032 7.91823 3.54603 7.98562 3.5246 8.12434C3.51237 8.20395 3.47311 8.28976 3.37726 8.28281L3.37625 8.28151C3.45729 8.30989 3.46415 8.35074 3.45 8.4214C3.4439 8.45145 3.40179 8.63387 3.43083 8.66333L3.43184 8.68569L3.27487 8.64475C3.26834 8.59419 3.29053 8.50327 3.29932 8.45296C3.30819 8.40842 3.32234 8.34563 3.27713 8.32203C3.24172 8.30319 3.22858 8.30411 3.18856 8.2949L3.14779 8.28666ZM3.17366 8.17105L3.27579 8.1986C3.33783 8.20755 3.37232 8.17541 3.38454 8.10048C3.39559 8.03175 3.38127 8.00488 3.3256 7.99157L3.2161 7.96939" fill="#0060AF"/>
<path d="M4.12008 7.994L4.2701 8.01142L4.20547 8.53606C4.17408 8.7024 4.10978 8.77515 3.92678 8.75238C3.7406 8.72885 3.6964 8.64405 3.7077 8.47637L3.77275 7.95215L3.92394 7.96948L3.85906 8.48198C3.85219 8.53765 3.8393 8.62011 3.93833 8.63007C4.02615 8.63677 4.04608 8.57859 4.05595 8.50626" fill="#0060AF"/>
<path d="M4.43652 8.78151L4.48165 8.03125L4.76988 8.04373C4.90608 8.05042 4.94174 8.16168 4.93747 8.26783C4.93354 8.33237 4.91336 8.40445 4.85711 8.44355C4.81098 8.47678 4.75171 8.48465 4.69671 8.48198L4.60278 8.47676L4.58403 8.7912L4.43652 8.78151ZM4.60705 8.36234L4.6834 8.36661C4.74543 8.36887 4.78654 8.34435 4.79189 8.25327C4.79491 8.16578 4.76184 8.15097 4.68147 8.14745L4.62095 8.14537" fill="#0060AF"/>
<path d="M24.765 1.75534L23.6194 3.83457C23.187 3.48347 22.659 3.22504 21.9854 3.22504C20.3912 3.22504 19.7437 4.41338 19.7437 5.25045C19.7437 5.87178 20.1505 6.78854 21.569 6.78854C22.1644 6.78854 23.0108 6.37432 23.2544 6.18588L22.1214 8.59813C21.5814 8.70588 21.404 8.77268 20.9468 8.78683C18.408 8.86259 17.3821 7.30298 17.3828 5.70929C17.3845 3.60251 19.2576 1.04033 22.3628 1.04033C22.5531 1.04033 22.7858 1.10613 22.9848 1.17905L23.1859 0.921875" fill="#0060AF"/>
<path d="M29.4921 0.986328L29.8165 8.54346H27.4023L27.4009 7.24738H25.7547L25.2129 8.54346H22.5947L25.332 3.14702L24.7147 3.143L25.8875 0.986328H29.4921ZM27.3852 3.29821L26.4545 5.49631H27.4133" fill="#0060AF"/>
<path d="M15.8587 0.986375C17.0543 0.993072 17.7299 1.64203 17.7299 2.57948C17.7299 3.44367 17.0174 4.20866 16.2352 4.60421C17.0405 4.90022 17.1101 5.62687 17.1101 6.14097C17.1101 7.38296 15.8639 8.54351 14.2439 8.54351H10.7109L12.0891 3.22224L11.523 3.21897L12.6802 0.986375C12.6802 0.986375 14.8866 0.979678 15.8587 0.986375ZM14.6858 4.05035C14.9331 4.05035 15.3698 3.98773 15.4789 3.50913C15.5986 2.9896 15.1888 2.97561 14.9922 2.97561L14.2898 2.97254L14.0449 4.05037L14.6858 4.05035ZM13.6928 5.38577L13.3694 6.62777H14.1964C14.5218 6.62777 14.9653 6.46628 15.0739 6.06211C15.1812 5.65676 14.8712 5.38577 14.547 5.38577" fill="#0060AF"/>
</svg>
