<svg width="30" height="12" viewBox="0 0 30 12" fill="none" xmlns="http://www.w3.org/2000/svg">
<path d="M9.68038 0.44171H1.89545C0.951496 0.44171 0.185547 1.22615 0.185547 2.19506V9.90268C0.185547 10.8627 0.936347 11.6422 1.86983 11.656L9.67481 11.6562C10.6188 11.6562 11.3865 10.8716 11.3865 9.90268L11.3903 2.19506C11.3903 1.22615 10.6241 0.44171 9.68038 0.44171ZM2.8207 10.7577L2.39584 10.7629C1.88142 10.7629 1.46614 10.3393 1.46614 9.81891L1.46302 9.74383V2.62616L1.46614 2.24252C1.48686 1.73901 1.86894 1.3322 2.37022 1.3322H3.23308C4.01663 1.3322 4.65024 2.01282 4.65024 2.81441C4.65024 3.21254 4.49429 3.5719 4.24209 3.83457L2.04027 6.06781L4.10485 8.17094C4.36997 8.44586 4.53038 8.80655 4.53038 9.20067C4.53038 10.0604 3.76644 10.7577 2.8207 10.7577ZM9.16796 10.7513L5.31839 10.7502C5.31839 10.7502 5.76352 9.78727 5.76352 9.1922C5.76352 8.46658 5.5209 7.81715 5.14105 7.3885L3.82503 6.04597L5.16711 4.65889C5.5688 4.28148 5.83392 3.61378 5.83392 2.85429C5.83392 2.25254 5.66772 1.71941 5.39859 1.3322H6.33186C7.11474 1.3322 7.74902 2.01282 7.74902 2.81441C7.74902 3.21254 7.59373 3.5719 7.34221 3.83457L5.18115 6.04508L9.66812 10.6209C9.52509 10.7105 9.34642 10.7513 9.16796 10.7513ZM10.107 9.32209L6.89106 6.04441L8.42251 4.48845C8.73464 4.09746 8.93336 3.51041 8.93336 2.85429C8.93336 2.24898 8.76405 1.70181 8.4938 1.31482L9.17843 1.33621C9.69196 1.33621 10.1097 1.7584 10.1097 2.28039L10.107 9.32209Z" fill="#00529C"/>
<path d="M18.29 5.52273C18.3526 5.46013 18.4266 5.37948 18.5119 5.28079C18.597 5.18209 18.6777 5.06557 18.7538 4.93101C18.83 4.79644 18.8951 4.6465 18.9488 4.48053C19.0027 4.31477 19.0297 4.13765 19.0297 3.9494C19.0297 3.58202 18.9668 3.23915 18.8414 2.92078C18.7157 2.60264 18.523 2.3246 18.263 2.08688C18.003 1.84961 17.6782 1.66336 17.2881 1.52879C16.8982 1.39445 16.4431 1.32717 15.9233 1.32717H15.9091H14.4146H14.0256H12.4941V3.04131V8.97552V10.7402H16.2595C16.8062 10.7402 17.2834 10.6663 17.6916 10.5183C18.0993 10.3704 18.4379 10.1666 18.7068 9.90656C18.9757 9.64656 19.1751 9.34401 19.3052 8.99891C19.4351 8.65381 19.5002 8.28398 19.5002 7.88942C19.5002 7.36052 19.3792 6.88999 19.1373 6.47739C18.8951 6.06523 18.6126 5.74686 18.29 5.52273ZM16.6251 3.052C16.7519 3.10035 16.8577 3.16317 16.9403 3.24226C17.1544 3.44768 17.2616 3.69319 17.2616 3.97881C17.2616 4.23791 17.2168 4.45201 17.1277 4.62155C17.0384 4.79132 16.949 4.92076 16.8599 5.00987H14.2424V2.94083H15.8694C16.1744 2.94083 16.4255 2.97848 16.6251 3.052ZM16.3535 6.63891C16.8274 6.63891 17.1785 6.76166 17.4071 7.00673C17.6221 7.24801 17.7304 7.53274 17.7304 7.86224C17.7304 8.20177 17.6076 8.49162 17.3621 8.73268C17.1163 8.97374 16.7127 9.09449 16.1501 9.09449H15.94H14.2424V6.63891H16.3535Z" fill="#00529C"/>
<path d="M25.8853 6.68592C26.1676 6.4932 26.4031 6.26908 26.5914 6.01354C26.7796 5.758 26.9184 5.47573 27.0082 5.16649C27.0978 4.85704 27.1428 4.54113 27.1428 4.2183C27.1428 3.79701 27.073 3.40936 26.9342 3.05512C26.795 2.70111 26.5867 2.39633 26.3089 2.14079C26.0308 1.88526 25.6835 1.68586 25.2667 1.54238C24.8498 1.39913 24.3679 1.32717 23.8212 1.32717H23.772H20.1501H20.1162V10.7402H21.8983V7.244H22.8919L25.3495 10.7402H27.4384L24.897 7.12303C25.2733 7.02456 25.6028 6.87885 25.8853 6.68592ZM23.8346 2.94083C23.9466 2.94083 24.0525 2.94818 24.1532 2.96088C24.4708 3.00878 24.7304 3.12218 24.9305 3.30242C25.2027 3.54815 25.3388 3.84937 25.3388 4.20627C25.3388 4.38517 25.3096 4.55917 25.2517 4.72871C25.1936 4.89848 25.1022 5.04797 24.9772 5.17719C24.852 5.30685 24.6914 5.41156 24.4951 5.49199C24.2986 5.57242 24.062 5.61252 23.7853 5.61252H21.8983V2.94083H23.8346Z" fill="#00529C"/>
<path d="M28.0669 1.32717V1.32984C28.0488 1.3294 28.0312 1.32717 28.0132 1.32717H27.998V1.32784V4.77817V7.25046V10.7402H29.8151V1.32717H28.0669Z" fill="#00529C"/>
</svg>
