<svg width="20" height="20" viewBox="0 0 20 20" fill="none" xmlns="http://www.w3.org/2000/svg">
<path d="M10 18.3333C10 18.3333 16.6667 12.5 16.6667 8.33333C16.6667 6.89855 16.0521 5.52364 14.9645 4.43604C13.8769 3.34845 12.502 2.73389 11.0667 2.73389C9.63135 2.73389 8.25644 3.34845 7.16885 4.43604C6.08125 5.52364 5.46669 6.89855 5.46669 8.33333C5.46669 12.5 10 18.3333 10 18.3333Z" stroke="#0a0d12" stroke-width="1.5" stroke-linecap="round" stroke-linejoin="round"/>
<path d="M10 10.8333C10.9205 10.8333 11.6667 10.0871 11.6667 9.16667C11.6667 8.24619 10.9205 7.5 10 7.5C9.07953 7.5 8.33334 8.24619 8.33334 9.16667C8.33334 10.0871 9.07953 10.8333 10 10.8333Z" stroke="#0a0d12" stroke-width="1.5" stroke-linecap="round" stroke-linejoin="round"/>
</svg>
