<svg width="30" height="10" viewBox="0 0 30 10" fill="none" xmlns="http://www.w3.org/2000/svg">
<path fill-rule="evenodd" clip-rule="evenodd" d="M21.9985 0.888601C21.4281 1.22975 20.0827 2.02675 19.5805 2.32355C19.2744 2.48461 18.5655 2.55493 18.1646 1.99651C18.1574 1.98642 17.6313 1.30742 17.6098 1.28186C17.5948 1.26379 17.2546 0.742703 16.4968 0.726411C16.3848 0.723669 15.8281 0.720604 15.2849 1.0395C14.5629 1.46558 12.8837 2.45718 12.8837 2.45718C12.8832 2.45718 12.8832 2.45807 12.8824 2.45807C12.1921 2.86601 11.6543 3.18361 11.6543 3.18361L12.2897 3.98972C12.587 4.37096 13.2573 4.6659 13.8386 4.32119C13.8386 4.32119 15.9865 3.03642 15.9944 3.03271C16.9234 2.50646 17.6401 2.50646 18.1159 2.70228C18.5429 2.88867 18.9144 3.35306 18.9144 3.35306C18.9144 3.35306 19.3999 3.97456 19.4856 4.08327C19.7618 4.43451 20.2191 4.29651 20.2191 4.29651C20.2191 4.29651 20.3885 4.27667 20.6439 4.12005C20.6439 4.12005 22.7244 2.87399 22.7258 2.87359C23.3864 2.47323 23.9923 2.39847 24.302 2.42791C25.2719 2.51896 25.5732 3.21885 25.9938 3.70712C26.2414 3.99431 26.4649 4.15739 26.8067 4.14916C27.0312 4.14425 27.2849 4.00359 27.3223 3.97818L29.8137 2.49307C29.8137 2.49307 29.5581 2.09538 29.0346 1.47663C28.566 0.924571 28.0683 1.17435 27.6715 1.37735C27.5048 1.46251 26.9008 1.87754 26.3023 2.16708C25.8759 2.37331 25.2635 2.31129 24.9278 1.88287C24.9077 1.85682 24.3647 1.17774 24.3076 1.09418C24.0884 0.810611 23.6608 0.556641 23.1127 0.556641C22.7795 0.556641 22.4013 0.650519 21.9985 0.888601Z" fill="url(#paint0_linear_39411_3822)"/>
<path fill-rule="evenodd" clip-rule="evenodd" d="M0.21385 6.69571C0.21385 6.25229 0.206041 5.88016 0.182617 5.54836H0.995283L1.03339 6.11841H1.05619C1.24038 5.81717 1.57722 5.46094 2.20554 5.46094C2.69596 5.46094 3.07903 5.74652 3.23964 6.17373H3.25541C3.38589 5.96009 3.53861 5.80193 3.71468 5.69071C3.92175 5.54054 4.15935 5.46094 4.46582 5.46094C5.08625 5.46094 5.7141 5.89613 5.7141 7.1309V9.40195H4.79485V7.27357C4.79485 6.63264 4.58068 6.25229 4.1289 6.25229C3.80658 6.25229 3.56883 6.49013 3.4699 6.76724C3.44663 6.86193 3.42368 6.98073 3.42368 7.09074V9.40195H2.50412V7.17034C2.50412 6.63264 2.29759 6.25229 1.86081 6.25229C1.50835 6.25229 1.27114 6.53763 1.18666 6.80612C1.14809 6.90169 1.13263 7.01218 1.13263 7.12275V9.40195H0.21385V6.69571Z" fill="#003A70"/>
<path fill-rule="evenodd" clip-rule="evenodd" d="M9.29525 8.47518C9.29525 8.82319 9.31055 9.1629 9.34889 9.40098H8.4982L8.43714 8.97377H8.41387C8.18416 9.27476 7.79344 9.48808 7.31082 9.48808C6.55984 9.48808 6.13867 8.92667 6.13867 8.34074C6.13867 7.36704 6.97343 6.87684 8.35258 6.88466V6.82111C8.35258 6.56779 8.25287 6.14864 7.5941 6.14864C7.22618 6.14864 6.84296 6.26744 6.59029 6.43334L6.40618 5.80079C6.68251 5.62634 7.16559 5.45996 7.75502 5.45996C8.95068 5.45996 9.29525 6.24389 9.29525 7.08234V8.47518ZM8.37556 7.51701C7.70914 7.50104 7.0734 7.65138 7.0734 8.23706C7.0734 8.61653 7.31085 8.79098 7.60974 8.79098C7.98469 8.79098 8.26094 8.53765 8.34495 8.26078C8.36775 8.18956 8.37556 8.11012 8.37556 8.04705V7.51701Z" fill="#003A70"/>
<path fill-rule="evenodd" clip-rule="evenodd" d="M9.94776 6.69571C9.94776 6.25229 9.93932 5.88016 9.91699 5.54836H10.7437L10.7899 6.12599H10.8126C10.9737 5.82564 11.3797 5.46094 12.0001 5.46094C12.6515 5.46094 13.3257 5.89613 13.3257 7.11509V9.40195H12.3835V7.22615C12.3835 6.67183 12.1843 6.25229 11.6709 6.25229C11.2955 6.25229 11.0351 6.52932 10.9352 6.82225C10.9051 6.90951 10.8971 7.02847 10.8971 7.13848V9.40195H9.94776V6.69571Z" fill="#003A70"/>
<path fill-rule="evenodd" clip-rule="evenodd" d="M17.4099 3.99902V8.31668C17.4099 8.71228 17.425 9.14037 17.4404 9.4012H16.5976L16.5599 8.79196H16.5443C16.322 9.21949 15.8692 9.4883 15.3259 9.4883C14.4376 9.4883 13.7325 8.70502 13.7325 7.51799C13.7247 6.22798 14.5061 5.46018 15.4024 5.46018C15.9155 5.46018 16.2836 5.68205 16.4519 5.96715H16.4674V3.99902H17.4099ZM16.468 7.15249C16.468 7.07418 16.4601 6.97877 16.4454 6.89989C16.361 6.52003 16.062 6.21121 15.633 6.21121C15.0277 6.21121 14.6906 6.76545 14.6906 7.48558C14.6906 8.18967 15.0277 8.70414 15.6253 8.70414C16.0082 8.70414 16.3455 8.43517 16.4373 8.01586C16.4601 7.92844 16.468 7.83359 16.468 7.73036V7.15249Z" fill="#003A70"/>
<path fill-rule="evenodd" clip-rule="evenodd" d="M18.0762 9.40218H19.0271V5.54883H18.0762V9.40218Z" fill="#003A70"/>
<path fill-rule="evenodd" clip-rule="evenodd" d="M19.6939 6.78959C19.6939 6.26754 19.686 5.89509 19.6631 5.54724H20.483L20.513 6.28294H20.5448C20.7283 5.73694 21.1651 5.54724 21.5633 5.54724C21.6551 5.54724 21.7086 5.53103 21.7855 5.54724V6.40215C21.7086 6.38634 21.6246 6.37053 21.5096 6.37053C21.0577 6.37053 20.751 6.67096 20.6668 7.10591C20.6519 7.19301 20.6364 7.29632 20.6364 7.40762V9.40108H19.6939V6.78959Z" fill="#003A70"/>
<path fill-rule="evenodd" clip-rule="evenodd" d="M22.2227 9.40218H23.1722V5.54883H22.2227V9.40218Z" fill="#003A70"/>
<defs>
<linearGradient id="paint0_linear_39411_3822" x1="11.6543" y1="4.47385" x2="29.8137" y2="4.47385" gradientUnits="userSpaceOnUse">
<stop stop-color="#FFCA06"/>
<stop offset="0.330844" stop-color="#FBAA18"/>
<stop offset="0.694742" stop-color="#FFC907"/>
<stop offset="1" stop-color="#FAA619"/>
</linearGradient>
</defs>
</svg>
