<svg width="20" height="20" viewBox="0 0 20 20" fill="none" xmlns="http://www.w3.org/2000/svg">
<path d="M16.6667 3.33333H3.33334C2.89131 3.33333 2.46739 3.50893 2.15483 3.82149C1.84227 4.13405 1.66667 4.55797 1.66667 5V15C1.66667 15.442 1.84227 15.866 2.15483 16.1785C2.46739 16.4911 2.89131 16.6667 3.33334 16.6667H16.6667C17.1087 16.6667 17.5326 16.4911 17.8452 16.1785C18.1577 15.866 18.3333 15.442 18.3333 15V5C18.3333 4.55797 18.1577 4.13405 17.8452 3.82149C17.5326 3.50893 17.1087 3.33333 16.6667 3.33333Z" stroke="#0a0d12" stroke-width="1.5" stroke-linecap="round" stroke-linejoin="round"/>
<path d="M6.66667 8.33333H13.3333" stroke="#0a0d12" stroke-width="1.5" stroke-linecap="round" stroke-linejoin="round"/>
<path d="M6.66667 11.6667H10" stroke="#0a0d12" stroke-width="1.5" stroke-linecap="round" stroke-linejoin="round"/>
</svg>
